<svg style="height: 512px; width: 512px;" xmlns="http://www.w3.org/2000/svg" viewBox="0 0 512 512"><defs><pattern><pattern id="pattern" patternUnits="userSpaceOnUse" width="16" height="16"><path d="M 0,16 l 16,-16 M -4,4 l 8,-8 M 12,20 l 8,-8" stroke-width="2" shape-rendering="auto" stroke="#8b572a" stroke-linecap="square"></path></pattern></pattern></defs><circle cx="256" cy="256" r="256" fill="url(#pattern)" fill-opacity="1"></circle><g class="" style="" transform="translate(0,0)"><path d="M329.3 99.64l-39.7 10.46c-30.2 26.1-62.7 50.9-96.7 75.1l-6.7 21-34.1 7.3c-22.6 15.3-45.6 30.4-68.82 45.5l120.32 18.4 213.9-167.1c-27.7-3.8-56.9-7.5-88.2-10.66zm103.4 21.56l-61.4 47.9-43 53.1-45 15.7-65 50.7 20.8 115.1c65.6-54.6 127.6-109.4 187-163.1l-5.6-31.2 42.1-1.9c8.3-7.4 16.5-14.9 24.6-22.3zM61.58 277.6c-21.15 39.9-32.01 70.6-36.83 95.8 9.21 1.1 18.3 2.2 27.28 3.5l16.76-30.6 5.52 34c53.29 8.6 103.09 20.5 152.19 32.1l-26.9-117.6-66-10.1z" fill="#8b572a" fill-opacity="1"></path></g></svg>