<svg style="height: 512px; width: 512px;" xmlns="http://www.w3.org/2000/svg" viewBox="0 0 512 512"><defs><pattern><pattern id="pattern" patternUnits="userSpaceOnUse" width="16" height="16"><path d="M 0,16 l 16,-16 M -4,4 l 8,-8 M 12,20 l 8,-8" stroke-width="2" shape-rendering="auto" stroke="#4a4a4a" stroke-linecap="square"></path></pattern></pattern></defs><circle cx="256" cy="256" r="256" fill="url(#pattern)" fill-opacity="1"></circle><g class="" style="" transform="translate(0,0)"><g><path d="M150.156 82.406C148.313 82.498 146.493 82.852 144.812 83.469L41.094 121.53C36.611 123.175 32.601 126.887 30.594 131.22C28.587 135.55 28.356 141.018 30 145.5L96.72 327.375C98.363 331.857 102.074 335.899 106.406 337.905C110.738 339.913 116.206 340.145 120.686 338.5L224.406 300.437C228.889 298.793 232.899 295.082 234.906 290.75L234.936 290.687C236.918 286.365 237.136 280.93 235.5 276.469L168.78 94.593C167.145 90.133 163.462 86.109 159.156 84.093L159.094 84.063C156.928 83.058 154.471 82.507 152 82.405C151.382 82.38 150.77 82.375 150.156 82.405Z" class="" fill="#000000" fill-opacity="1"></path><path d="M189.22 96.03L253.063 270.03C256.473 279.33 256.038 289.64 251.875 298.625C247.712 307.611 240.141 314.59 230.845 318L203.405 328.063L263.405 330.843C268.175 331.066 273.315 329.183 276.845 325.969C280.373 322.752 282.715 317.799 282.937 313.029L291.937 119.529C292.159 114.761 290.309 109.591 287.094 106.061C283.878 102.531 278.926 100.191 274.156 99.968L189.219 96.028Z" class="" fill="#000000" fill-opacity="1"></path><path d="M310.22 129.28L301.594 313.906C301.134 323.799 296.758 333.143 289.438 339.812C282.118 346.482 272.424 349.96 262.531 349.5L236.471 348.28L305.845 371.375C310.375 372.882 315.857 372.482 320.125 370.345C324.395 368.205 327.963 364.062 329.47 359.531L390.625 175.721C392.132 171.189 391.732 165.708 389.595 161.439C387.455 157.169 383.312 153.569 378.781 152.064L310.221 129.282Z" class="selected" fill="#000000" fill-opacity="1"></path><path d="M105.156 147.625C129.614 172.561 173.176 165.365 185.906 193.155C197.781 219.082 171.396 239.161 147.936 231.562L164.936 262.344L146.156 269.25L135.219 237.562C124.829 260.186 92.166 261.308 81.062 237.032C67.532 207.455 105.082 182.832 105.155 147.625Z" class="" fill="#000000" fill-opacity="1"></path><path d="M406.594 186.845L347.22 365.437C344.093 374.834 337.355 382.627 328.5 387.062L328.406 387.092C319.572 391.488 309.336 392.208 299.969 389.092L279.593 382.312L322.905 419.342C326.535 422.444 331.77 424.122 336.53 423.749C341.29 423.375 346.148 420.909 349.25 417.279L475.125 269.969C478.227 266.339 479.905 261.134 479.531 256.374C479.159 251.614 476.661 246.726 473.031 243.624L406.595 186.844Z" class="" fill="#000000" fill-opacity="1"></path></g></g></svg>