<svg xmlns="http://www.w3.org/2000/svg" viewBox="0 0 512 512">
<g id="id"><path d="M219.7 24.43L201.9 26.49L208.7 85.86L172.6 35.51L158 46.01L189.9 90.46L227.3 90.46Z" class="" fill-opacity="1"></path><path d="M254.6 24.61L248.3 90.46L266.5 90.46L272.6 26.31Z" class="" fill-opacity="1"></path><path d="M338.2 26.19L301.2 90.46L321.9 90.46L353.8 35.17Z" class="" fill-opacity="1"></path><path d="M287.3 32.52L277.2 90.46L295.6 90.46L305.1 35.6Z" class="" fill-opacity="1"></path><path d="M195 108.5C189.4 112.5 182.5 118.8 174.9 126.5L337.1 126.5C329.5 118.8 322.6 112.5 317 108.5Z" class="selected" fill-opacity="1"></path><path d="M158.1 144.5C140 165 119.6 190.9 101.3 216.7C84.45 240.5 69.08 264.3 58.05 283.9C52.54 293.7 48.11 302.5 45.16 309.5C42.33 316.2 41.14 321.5 41.04 323.1C41.18 323.1 41.62 324.7 43.33 326.4C45.65 328.8 49.65 331.6 55.12 333.8C66.05 338.2 82.83 340.4 105.2 333.4C118 329.4 129.8 334.8 141.5 339.7C153.3 344.7 165.7 350.1 179 351.4C194.7 353.1 216.3 345.1 237.3 337.6C247.8 333.8 258.2 330.3 268.3 328.7C278.5 327 288.9 327.3 297.9 332.8C308.4 339.2 320.3 345.6 331.2 348.6C342.2 351.7 351.4 351.5 359.4 346.1C386.1 328.3 410.7 329.3 429 338.8C448.8 349.1 457.4 346 463 341.2C468.7 336.4 471.1 326.2 471 323.9L471 323.5C471 322.1 469.8 316.5 466.8 309.5C463.8 302.5 459.4 293.7 453.9 283.9C442.9 264.3 427.5 240.5 410.7 216.7C392.4 190.9 372 165 353.9 144.5Z" class="" fill-opacity="1"></path><path d="M279.1 345.8C276.8 345.8 274.2 346 271.2 346.4C263.3 347.7 253.7 350.9 243.4 354.5C222.8 361.9 199.7 371.7 177.2 369.4C160.2 367.6 146 361.1 134.6 356.3C123.1 351.5 114.9 349.2 110.6 350.6C108.7 351.2 106.8 351.7 105 352.2L105 451.5C105 455.7 107.5 460 114.8 465.1C122.2 470.1 133.9 475 148.3 478.8C163 482.7 180.5 485.7 199.3 487.6C200.4 465.7 204.3 442.2 211.5 422.4C215.8 410.7 221.1 400.3 228.3 392.3C235.4 384.2 245 378.5 256 378.5C267 378.5 276.6 384.2 283.7 392.3C290.9 400.3 296.2 410.7 300.5 422.4C307.7 442.2 311.6 465.7 312.7 487.6C331.5 485.7 349 482.7 363.7 478.8C378.1 475 389.8 470.1 397.2 465.1C404.5 460 407 455.7 407 451.5L407 350C396.7 348.4 384.7 350.9 369.4 361.1C356 370 340.4 369.8 326.4 366C312.5 362.2 299.5 354.9 288.5 348.2C286.1 346.7 283 345.9 279.1 345.8Z" class="" fill-opacity="1"></path></g></svg>
